<svg id="Layer_1" data-name="Layer 1" xmlns="http://www.w3.org/2000/svg" viewBox="0 0 217 204"><defs><style>.cls-1{fill:#004487;}.cls-2{fill:#03312e;}.cls-3{fill:#f89e8b;}.cls-4{fill:#bf6d15;}.cls-5{fill:#f59e8c;}.cls-6{fill:#f8d7ce;}.cls-7{fill:#f09f90;}.cls-8{fill:#01003a;}.cls-9{fill:#fcfcfc;}.cls-10{fill:#0e0e49;}.cls-11{fill:#f49f8d;}.cls-12{fill:#fdefec;}.cls-13{fill:#fce6e1;}.cls-14{fill:#5c615e;}.cls-15{fill:#686966;}.cls-16{fill:#ec7966;}.cls-17{fill:#f7ddd7;}.cls-18{fill:#163e3b;}.cls-19{fill:#093532;}.cls-20{fill:#fbebe8;}.cls-21{fill:#6a6c69;}.cls-22{fill:#f0ecea;}.cls-23{fill:#f99e8b;}.cls-24{fill:#ea735f;}.cls-25{fill:#128ab0;}.cls-26{fill:#168cb2;}.cls-27{fill:#158bb2;}.cls-28{fill:#489bff;}.cls-29{fill:#fbfbfb;}.cls-30{fill:#1d94d6;}.cls-31{fill:#efa498;}.cls-32{fill:#ec7a66;}.cls-33{fill:#e77460;}.cls-34{fill:#f69d8b;}.cls-35{fill:#9e493b;}.cls-36{fill:#43b3ff;}.cls-37{fill:none;stroke:#f7ddd7;stroke-miterlimit:10;stroke-width:2px;}.cls-38{fill:#0d3734;}.cls-39{fill:#baddfa;}.cls-40{fill:#1976d1;}</style></defs><title>Plan de travail 2</title><path class="cls-1" d="M171.31,96.37h0c-.06.09-.12.18-.17.27l.2-.1a1,1,0,0,1,0-.17Z"/><path class="cls-2" d="M76.06,36.49c1,1.76,2,1.88,3.3.52,0-2.29.28-4.66-.19-6.86-1.36-6.53,4.26-10.69,10.74-9.45,3,.56,5.75,1.42,8.77.1,1.79-.78,3,.79,3.85,2.05a63.65,63.65,0,0,1,3.11,5.61h0c2.74-2.61,6.56-5,2-9.21-.46-.44.13-1,.37-1.49,3.07-6.66,1.14-10.3-6.21-11.7A84,84,0,0,0,84.73,4.75c-4.11.07-8.17.65-9.2,5.84-.17.87-.93,1.18-1.85,1.5-6.42,2.19-7.54,4.54-5.73,11.39.22.83,1.09,1.61-.24,2.56-3.12,2.23-1.85,5-.53,7.62h0C72.37,31.64,73.59,32,76.06,36.49Z"/><polygon class="cls-3" points="84.37 33.61 84.37 33.61 84.37 33.61 84.37 33.61"/><path class="cls-4" d="M102.53,22.85c-.86-1.26-2.06-2.83-3.85-2.05-3,1.32-5.81.46-8.77-.1-6.48-1.24-12.1,2.92-10.74,9.45.47,2.2.15,4.57.19,6.86l.86-1.89h0c.34-2.58,2.4-.54,3.57-.89a4.86,4.86,0,0,1,.58-.63,4.61,4.61,0,0,0,0-.83c-1.58-1.51-.71-2.35.75-3.21,1.92-1.14,3.89-2.09,6-.94,1.54.83,1.06,2.12.18,3.27l.81,1.63c.59.63,1.17,1.27,1.76,1.91h0l0-.08h0c.14-.84-.5-2.23.72-2.34,1.41-.13.73,1.35.94,2.14h0l1.76-.69a3,3,0,0,0,1.71-1.73c-.12-.09-.31-.15-.33-.26-.4-1.64-3.53-1.51-2.67-3.81.68-1.83,2.55-1.78,4.07-1.51,2.08.37,4.43.77,4.07,3.86l0,.69h0c1.65-.56,1.71-1.82,1.42-3.23h0A63.65,63.65,0,0,0,102.53,22.85Z"/><path class="cls-5" d="M104.19,31a6.65,6.65,0,0,0-5.14,1.72,3,3,0,0,1-1.71,1.73c0,1.08-.06,2.17-.08,3.25h0a1,1,0,0,0,0,.16s0-.09,0-.14a5.34,5.34,0,0,1,8.18-4.53l-1.25-1.5h0Z"/><path class="cls-5" d="M98.22,40.73c0,.24,0,.47,0,.7l.53,0A7.22,7.22,0,0,1,98.22,40.73Z"/><path class="cls-6" d="M103.29,43.39a2.4,2.4,0,0,0-.64-.17A5.53,5.53,0,0,0,103.29,43.39Z"/><path class="cls-6" d="M102.65,43.08a5.33,5.33,0,0,1-3.87-1.67l-.53,0h0c.86,2.09,2.8,1.51,4.4,1.79a5.43,5.43,0,0,0,4.17-1.86,2.2,2.2,0,0,1,1.61-1.61h0c-.16-.54-.31-1.07-.47-1.6A5.34,5.34,0,0,1,102.65,43.08Z"/><path class="cls-4" d="M106.82,41.36a5.43,5.43,0,0,1-4.17,1.86,2.4,2.4,0,0,1,.64.17c1.69.74,1.36,3.44,3.32,3.91a5.82,5.82,0,0,0,1.22-3.2C107.49,43.19,107.9,42,106.82,41.36Z"/><path class="cls-7" d="M106.82,41.36c1.08.64.67,1.83,1,2.74.92-1.35.53-2.88.6-4.35A2.2,2.2,0,0,0,106.82,41.36Z"/><path class="cls-8" d="M60.27,75.36c.36,2.26.79,4.51,1.22,6.76H72.75c-1.07-4.47-2-9-4.13-13.15h0a10.68,10.68,0,0,0-10.16,3.16h0A4.44,4.44,0,0,1,60.27,75.36Z"/><path class="cls-8" d="M88,142c-1.46-8.09-4.67-15.76-5.69-23.95h0a281.22,281.22,0,0,1-7.43-29.27c-.17-.32-.35-.63-.52-.94-.61-1.89-1.1-3.82-1.57-5.76H61.49c.48,2.5,1,5,1.34,7.52.85,5.63,2,11,8.32,13.1.31.11.47.66.7,1-4.18,3.32-4.19,3.32-3.12,8.47,1.25,6,2.43,12,3.81,18,.44,1.9.61,4.4,2.45,5.31,4.49,2.24,8,6.06,12.78,7.71h0C87.83,142.81,87.9,142.43,88,142Z"/><path class="cls-9" d="M79.94,82.12a74.72,74.72,0,0,1,5.6-6.33c2-1.9,1.5-4.06-.31-6h0c-4.7-1.26-7-5.93-11.1-8h0c-3,1.45-2.79,5.42-5.5,7.12h0c2.1,4.16,3.06,8.68,4.13,13.15Z"/><path class="cls-9" d="M74.32,87.88a39.22,39.22,0,0,0,5.62-5.76H72.75c.47,1.94,1,3.87,1.57,5.76Z"/><path class="cls-9" d="M91.06,69.07l-2.29,1.65c-.64,2.8.79,4.91,2.34,7l3.3,4.42H103q1.2-5.28,2.42-10.56a21.85,21.85,0,0,0-3.7-5.71,5.25,5.25,0,0,0-3.17-2c.31,2.59.81,5.65,1.48,6.12Z"/><path class="cls-9" d="M101.5,88.78,103,82.12H94.41L100,89.59Z"/><path class="cls-10" d="M85.9,77.45c1.13-1.64,2.32-1.35,3.29.19s2.39,2.86,3.28,4.48h1.94l-3.3-4.42c-1.55-2.07-3-4.18-2.34-7l-3.54-.89h0c1.81,1.9,2.31,4.06.31,6a74.72,74.72,0,0,0-5.6,6.33h2.4C83,80.25,84.79,79.06,85.9,77.45Z"/><path class="cls-10" d="M93.11,83.65c1.68,2.09,3.33,4.2,5,6.26.71.87,1.55,1.58,1.85-.32h0l-5.59-7.47H92.47A6.68,6.68,0,0,1,93.11,83.65Z"/><path class="cls-10" d="M74.32,87.88h0c.17.31.35.62.52.94h0c1.83-.07,2.73-1.36,3.57-2.73A4.94,4.94,0,0,1,82,83.37a4.57,4.57,0,0,1,.3-1.25h-2.4A39.22,39.22,0,0,1,74.32,87.88Z"/><path class="cls-11" d="M84.27,33.82c.06-.07.12-.15.19-.22H84.4A1.28,1.28,0,0,1,84.27,33.82Z"/><path class="cls-11" d="M91.75,33.37a5.37,5.37,0,0,1,1.75,3.16c.13-.37.26-.74.38-1.1-.59-.64-1.17-1.28-1.76-1.91h0C92,33.46,91.87,33.42,91.75,33.37Z"/><path class="cls-11" d="M90.61,42.16l.77,0-.36.22a1.65,1.65,0,0,0,.36-.22,1.57,1.57,0,0,0,.72-1.11A5.37,5.37,0,0,1,90.61,42.16Z"/><path class="cls-11" d="M84.26,33.83a2.53,2.53,0,0,1,.13-.22h0a4.86,4.86,0,0,0-.58.63.82.82,0,0,0,.26-.14Z"/><path class="cls-12" d="M94.81,51.55c2,.1,4-1.41,3.84-3.27-.24-2.58-2.92-1.45-4.9-1.91-1,1-3.84-1.28-3.9,1.42S92.46,51.44,94.81,51.55Z"/><polygon class="cls-13" points="82.07 39.49 82.07 39.49 82.07 39.49 82.07 39.49"/><path class="cls-13" d="M84.39,33.61a2.53,2.53,0,0,0-.13.22h0a1.28,1.28,0,0,0,.13-.21Z"/><path class="cls-4" d="M83.86,40.46,81,40.3c-.94.7-2.12,1.66-.41,2.44,1.38.62,3.41,1.25,3.83-1.46v-.19A5.27,5.27,0,0,1,83.86,40.46Z"/><path class="cls-14" d="M70.73,38.16c-2,3.89,1,3.38,3.16,3.71A4.52,4.52,0,0,0,70.73,38.16Z"/><path class="cls-15" d="M97.26,37.7h0l-1.47-1.35h0l-1,.84h0c.87,1.39,1.36,3.17,3.39,3.37a5.31,5.31,0,0,1-.81-2.7A1,1,0,0,1,97.26,37.7Z"/><path class="cls-16" d="M84.38,41.09v.19l.88.91.61,0A5.24,5.24,0,0,1,84.38,41.09Z"/><path class="cls-17" d="M95.78,36.35h0l-1-.8-.86-.21h0l0,.08h0c-.12.36-.25.73-.38,1.1a4.82,4.82,0,0,1,.09.86,5.39,5.39,0,0,1-.93,3c1.75-.23.76-2.63,2.07-3.22h0Z"/><path class="cls-18" d="M100.12,27.14c-1.52-.27-3.39-.32-4.07,1.51-.86,2.3,2.27,2.17,2.67,3.81,0,.11.21.17.33.26A6.65,6.65,0,0,1,104.19,31C104.55,27.91,102.2,27.51,100.12,27.14Z"/><path class="cls-19" d="M91.31,31.89c.88-1.15,1.36-2.44-.18-3.27-2.14-1.15-4.11-.2-6,.94-1.46.86-2.33,1.7-.75,3.21C86.51,31.18,89,31.94,91.31,31.89Z"/><path class="cls-20" d="M84.37,33.61h.09a5.3,5.3,0,0,1,7.29-.23c.12.05.25.09.37.15h0l-.81-1.63c-2.35.05-4.8-.71-7,.88a4.61,4.61,0,0,1,0,.83Z"/><path class="cls-21" d="M95.58,35.14h0c-.21-.79.47-2.27-.94-2.14-1.22.11-.58,1.5-.72,2.34h0l.86.21Z"/><path class="cls-22" d="M94.78,35.55l1,.8h0l1.47,1.35h0c0-1.08,0-2.17.08-3.25l-1.76.69h0Z"/><path class="cls-8" d="M114,82.12c.48-2.38,1-4.76,1.41-7.14h0c-2.35-4-6.17-3.72-10-3.42q-1.22,5.28-2.42,10.56Z"/><path class="cls-8" d="M101.5,88.78Q98.26,103.15,95,117.53h0l-.93,3.92h0q-1.89,9-3.76,18l.08,3.55c2.63-1.19,4.73-3.2,7.15-4.7a13.44,13.44,0,0,0,6.43-9.6c1.18-6.16,2.57-12.29,4.11-18.37.54-2.12.36-3.75-1.53-4.8-3.43-1.93-1.79-2.93.53-4.12,3-1.56,4.84-3.6,5.12-7.58A94.68,94.68,0,0,1,114,82.12H103Z"/><path class="cls-23" d="M187.06,80.13h0c-.55-3.11-4.75-.5-5.56-3.76,2.27-.07,4.09,1.76,6.24,1.12h0c2.11-2.6.12-4.73-.8-7h0c-6.74-1.67-8.28-1-9.77,4.53v0h0a1.78,1.78,0,0,1,0,.61c.35,2.15.71,4.3,1.06,6.45h8.38A11.24,11.24,0,0,0,187.06,80.13Z"/><path class="cls-23" d="M178.45,83.54c1.07,1.67,1,3.86,2.49,5.34,2.19,1,4.27,2.36,6.77,2.55h0c0-.32-.05-.64-.08-1h0c-3.4-2.61-1.93-5.5-1-8.35h-8.38l.24,1.42Z"/><path class="cls-24" d="M187.74,77.49h0l1,.08c3-.64,2.55,2.13,3.52,3.49h0c.57.72,2,.46,2.63,1.06h3.21l.08-.09c1.43-1.37.06-1.79-1.27-1.93s-2.88.76-3.42-.79,1.8-1.84,2.25-3.69c-3.57,1.94-5.37.8-6.08-2.81a7.89,7.89,0,0,0-1.81-2.8,4.44,4.44,0,0,1-.27-.38l-.63.2h0a3.83,3.83,0,0,0,0,.68h0C187.86,72.76,189.85,74.89,187.74,77.49Z"/><path class="cls-24" d="M195.2,83.38c-.85,5.32,2.52,3.08,4.69,3.17-1.17-1.41-5.12-1.14-1.77-4.43h-3.21A1.34,1.34,0,0,1,195.2,83.38Z"/><path class="cls-25" d="M43.1,154.17A185.38,185.38,0,0,0,45,175.48c.36,2.37,0,5.07,1,7.44-.62-7.55-3.24-39.5-3.76-46.41v0C42.54,142.39,42.9,148.27,43.1,154.17Z"/><path class="cls-25" d="M42.23,135.41v0c-.2-3.26-2.7,0-2.7,0C40.49,135.17,41.89,132.84,42.23,135.41Z"/><path class="cls-8" d="M123.16,178.18c-3.55-1-7-2.18-10.62-3.12-1.5-.39-3.32-.51-3.8,1.59-.39,1.75,1.21,2.12,2.36,2.47,5.41,1.69,10.76,3.59,16.39,4.46,0-.12,0-.25,0-.37a7.64,7.64,0,0,0-.93-4.72l0-.06A17.41,17.41,0,0,1,123.16,178.18Z"/><path class="cls-26" d="M52.81,197.68c-3.62,2.07-7.25,4.11-10.69,6.43h3.23C48.12,202.39,50.89,200.54,52.81,197.68Z"/><path class="cls-8" d="M191.89,106.43c-5.92-2.66-4.14-6.5-1.67-10.47a1.73,1.73,0,0,0,.1-.83,6.83,6.83,0,0,0-.53-1.14,10.85,10.85,0,0,1-.46,1.34c-3.9,7.22-3.91,7.22-11.37,3.94l-6.63-2.92h0l0,0h0a1,1,0,0,0,0,.17c.27,1.82,1.89,2,3.24,2.65,5.87,2.73,12,4.83,17.48,8.47l0,0C192,107.22,192.1,106.52,191.89,106.43Z"/><path class="cls-25" d="M120.41,109.15c-.43,6.09-1.5,12.16,0,18.25l.27-1.42.11-.6c0-.08,0-.17,0-.25C120.57,119.81,122.4,114.45,120.41,109.15Z"/><path class="cls-27" d="M156,118.19c-.43,1.64-.89,3.27-1.28,4.91-.3,1.21-1.67,3.35,1.5,1.72,1.08-.55,1.13.85,1.63,1.42.84,1,.25,2.89,2.59,3.33-1.27-4-2.46-7.71-3.65-11.43A1.13,1.13,0,0,0,156,118.19Z"/><path class="cls-8" d="M88,142c-.06.39-.13.77-.19,1.16h0c1,1.64,1.86,1.44,2.66-.15l-.08-3.55C89.12,139.94,90.3,142.64,88,142Z"/><path class="cls-28" d="M89.19,77.64c-1-1.54-2.16-1.83-3.29-.19s-2.86,2.8-3.56,4.67H92.47C91.58,80.5,90.18,79.2,89.19,77.64Z"/><path class="cls-28" d="M94,117.08c-1.07-7.94-2.08-15.9-3.25-23.83-.54-3.59-.3-6.86,2.36-9.6a6.68,6.68,0,0,0-.64-1.53H82.34a4.57,4.57,0,0,0-.3,1.25,10,10,0,0,1,3.18,8.47q-1.47,13.13-3,26.25h0C83.29,126.28,86.5,134,88,142c2.34.6,1.16-2.1,2.39-2.54q1.88-9,3.76-18h0v0C94.07,120,94,118.54,94,117.08Z"/><path class="cls-29" d="M85.22,91.84A10,10,0,0,0,82,83.37a4.94,4.94,0,0,0-3.63,2.72c-.84,1.37-1.74,2.66-3.57,2.73h0a281.22,281.22,0,0,0,7.43,29.27h0Q83.74,105,85.22,91.84Z"/><path class="cls-29" d="M100,89.59c-.3,1.9-1.14,1.19-1.85.32-1.71-2.06-3.36-4.17-5-6.26-2.66,2.74-2.9,6-2.36,9.6,1.17,7.93,2.18,15.89,3.25,23.83l1,.45q3.22-14.37,6.46-28.75l-1.5.81Z"/><path class="cls-30" d="M180.94,88.88c-3.6-1.83-6.2-1.09-7.6,2.9a5.51,5.51,0,0,1-1,1.32h0l-1,3.25h0L178,99.27c7.46,3.28,7.47,3.28,11.37-3.94a10.85,10.85,0,0,0,.46-1.34,6.83,6.83,0,0,1,.53,1.14,1.73,1.73,0,0,1-.1.83c-2.47,4-4.25,7.81,1.67,10.47.21.09.15.79.21,1.21.08,0,.12-.1.19-.14,1.44-1,.93-3.15,2.44-4.08-.21-2.94,3.55-5.55.71-8.7a4.5,4.5,0,0,1-4-1.68c-1.41-.13-2.89-.11-3.69-1.61h0C185.21,91.24,183.13,89.92,180.94,88.88Zm2.28,9a1.47,1.47,0,0,1-1.3-1.8,1.66,1.66,0,0,1,1-1c1.09-.19,1.39.6,1.43,1.25C184.38,97.31,184.05,98,183.22,97.85Z"/><path class="cls-31" d="M94.1,121.47v0l.93-3.92h0l-1-.45C94,118.54,94.07,120,94.1,121.47Z"/><path class="cls-32" d="M187.33,80.13h-.27a11.24,11.24,0,0,1-.47,2h1.06l-.05-2Z"/><path class="cls-32" d="M187.63,90.47h0c0-.59.05-1.19.07-1.79a4.23,4.23,0,0,1,0-5l0-1.54h-1.06C185.7,85,184.23,87.86,187.63,90.47Z"/><path class="cls-33" d="M187.6,80.13c.38-.85.77-1.7,1.16-2.56h0l-1-.08h0c-2.15.64-4-1.19-6.24-1.12.81,3.26,5,.65,5.56,3.76h.54Z"/><path class="cls-8" d="M183,95a1.66,1.66,0,0,0-1,1,1.47,1.47,0,0,0,1.3,1.8c.83.12,1.16-.54,1.16-1.6C184.34,95.6,184,94.81,183,95Z"/><path class="cls-34" d="M187.7,88.68c0-1.67,0-3.35,0-5h0A4.23,4.23,0,0,0,187.7,88.68Z"/><path class="cls-4" d="M103.29,43.39a5.53,5.53,0,0,1-.64-.17c-1.6-.28-3.54.3-4.4-1.79h0c0-.23,0-.46,0-.7,0,0-.06-.11-.1-.17-2-.2-2.52-2-3.39-3.37h0c-1.31.59-.32,3-2.07,3.22a6,6,0,0,1-.56.67,1.57,1.57,0,0,1-.72,1.11,1.65,1.65,0,0,1-.36.22,4.85,4.85,0,0,1-5.77-.22l-.88-.91C84,44,81.92,43.36,80.54,42.74,78.83,42,80,41,81,40.3l1.12-.81c-.57-1.48.49-3.64-1.85-4.37L79.36,37c-1.34,1.36-2.33,1.24-3.3-.52-2.47-4.5-3.69-4.85-8.88-2.83h0c-1.88,6.85-.4,12.55,4.08,14.88,2,1.05,3.72,2,3.41,4.63-.35,3,.17,3.81.23,5.83a10.17,10.17,0,0,1-.78,2.85h0c4.14,2,6.4,6.72,11.1,8h0l3.54.89,2.29-1.65.09-.06a5.77,5.77,0,0,0,4.07-2.88c1.13-1.64,2.22-2.33,3.36-2.24-.12-1-.21-2-.28-2.71a9.44,9.44,0,0,0,4.61-3.56c1.46-2.29,1.78-4.6,2.46-7.14a29.44,29.44,0,0,1,1.24-3.18C104.65,46.83,105,44.13,103.29,43.39ZM70.73,38.16a4.52,4.52,0,0,1,3.16,3.71C71.68,41.54,68.77,42.05,70.73,38.16Zm27.57,23a17.54,17.54,0,0,1-8,1.57,22.34,22.34,0,0,1-5.61-1.17,22.83,22.83,0,0,1-2.44-1,29.19,29.19,0,0,0,16.06.57Zm-3.49-9.64c-2.35-.11-5-1.12-5-3.76s2.87-.45,3.9-1.42c2,.46,4.66-.67,4.9,1.91C98.81,50.14,96.85,51.65,94.81,51.55Z"/><path class="cls-9" d="M95.22,66.13A5.77,5.77,0,0,1,91.15,69l-.09.06,9,.94c-.67-.47-1.17-3.53-1.48-6.12C97.44,63.8,96.35,64.49,95.22,66.13Z"/><path class="cls-35" d="M98.3,61.19h0a25.73,25.73,0,0,1-2.85.95c-3.63,1-7.08.14-10.77-.56a22.34,22.34,0,0,0,5.61,1.17A17.54,17.54,0,0,0,98.3,61.19Z"/><path class="cls-35" d="M95.41,62.15a25.73,25.73,0,0,0,2.85-.95,29.19,29.19,0,0,1-16.06-.57,22.83,22.83,0,0,0,2.44,1C88.33,62.29,91.78,63.17,95.41,62.15Z"/><path class="cls-1" d="M46.84,184.27a.61.61,0,0,0-.07-.1Z"/><path class="cls-1" d="M47.37,184.89l-.11-.12Z"/><path class="cls-1" d="M46.41,183.61l0-.05Z"/><path class="cls-1" d="M42.26,135.69l0-.28h0C42.24,135.5,42.25,135.6,42.26,135.69Z"/><polygon class="cls-1" points="46.06 182.92 46.06 182.93 46.06 182.92 46.06 182.92"/><path class="cls-8" d="M44.11,143.11c-.67-4.32-1.62-9.88.41-13.07,4.63-7.28,7.91-16.46,19-19.06-2.62-.41-3.84-1.17-2.7-4.15-9.63,8.8-16.11,18.35-22,28.33l.72.21s2.5-3.26,2.7,0v0l0,.28c0,.15,0,.31,0,.49s0,.22,0,.33c.52,6.91,3.14,38.86,3.76,46.41h0c.1.21.2.42.32.63l0,.05a6.65,6.65,0,0,0,.36.56.61.61,0,0,1,.07.1c.13.17.27.33.42.5l.11.12a6.94,6.94,0,0,0,.62.58c-1-8.14-1.88-16.05-2.61-24C44.82,155.37,45.06,149.23,44.11,143.11Z"/><path class="cls-8" d="M19.62,150l12.12,1.62c0-.55,0-1.1,0-1.66C28.14,146.79,24.34,147.66,19.62,150Z"/><path class="cls-8" d="M73.05,178.48c-6.42,3.44-12.52,7.46-19.28,10.26a1.53,1.53,0,0,0-.91,2.38c.42.88.73,1.94,2.06,1.83a4.5,4.5,0,0,0,.82-.22A173.67,173.67,0,0,0,75.31,182.1a2.31,2.31,0,0,0,1-3.28C75.44,177.09,74.16,177.88,73.05,178.48Z"/><path class="cls-8" d="M89,151.54c1.1.08,1.39-.66,1.4-1.59,0-.76-.32-1.4-1.15-1.45-1.08-.07-1.41.66-1.39,1.6C87.88,150.85,88.17,151.48,89,151.54Z"/><path class="cls-8" d="M91.77,197.72a1.66,1.66,0,0,0-1.26,1.83A1.22,1.22,0,0,0,92,200.74c1-.12,1.59-.68,1.34-1.71A1.41,1.41,0,0,0,91.77,197.72Z"/><path class="cls-8" d="M91.19,162.16a1.57,1.57,0,1,0-3.14.21c0,1.11.76,1.37,1.85,1.37A1.27,1.27,0,0,0,91.19,162.16Z"/><path class="cls-8" d="M92.7,187c-.14-.81-.56-1.42-1.33-1.43-1.23,0-1.74.84-1.66,1.95a1.18,1.18,0,0,0,1.47,1.11A1.59,1.59,0,0,0,92.7,187Z"/><path class="cls-8" d="M92,174.68c0-.84-.45-1.27-1.49-1.4-.64.17-1.48.46-1.58,1.45a1.36,1.36,0,0,0,1.51,1.6A1.55,1.55,0,0,0,92,174.68Z"/><path class="cls-36" d="M42.3,136.49c0-.1,0-.2,0-.31s0-.33,0-.49,0-.19,0-.27C42.24,135.63,42.27,136,42.3,136.49Z"/><path class="cls-36" d="M42.26,135.69c0,.16,0,.31,0,.49C42.28,136,42.27,135.84,42.26,135.69Z"/><path class="cls-36" d="M42.3,136.51c0-.11,0-.22,0-.33,0,.11,0,.21,0,.31Z"/><path class="cls-36" d="M60.27,75.36a4.44,4.44,0,0,0-1.81-3.23h0c-10,4.32-10,4.32-12.35,5.81a40.27,40.27,0,0,1-4.64,4.18h20C61.06,79.87,60.63,77.62,60.27,75.36Z"/><path class="cls-36" d="M114,82.12H123c-1.16-2.24-2.27-4.6-4.4-6.45L115.45,75h0C115,77.36,114.52,79.74,114,82.12Z"/><path class="cls-36" d="M131.82,199.37c-.64-5.47-1.4-11-4-16l-.33-.17c0,.12,0,.25,0,.37-5.63-.87-11-2.77-16.39-4.46-1.15-.35-2.75-.72-2.36-2.47.48-2.1,2.3-2,3.8-1.59,3.57.94,7.07,2.14,10.62,3.12a17.41,17.41,0,0,0,3.4.25l0,.06a4.12,4.12,0,0,0,.6-.77,14.58,14.58,0,0,0-.28-5.1c-2.67-14.76-5-29.56-5.38-44.6a8.66,8.66,0,0,1-.89-2l-.27,1.42c-1.46-6.09-.39-12.16,0-18.25,2,5.3.16,10.66.39,16,0,.08,0,.17,0,.25,1.36,2,3.76,2.76,5.41,4.43a76.21,76.21,0,0,0,23.76,16,21.84,21.84,0,0,0,16.19-1.36c6.81-3.14,11-8.87,15.41-14.49,3.4-5.52,6.49-11.22,9.52-16.95.48-1.81,1.69-3.45,1.27-5.46,0,0,0,0,0,0s-.11.1-.19.14l0,0c-5.43-3.64-11.61-5.74-17.48-8.47-1.35-.62-3-.83-3.24-2.65l-.2.1-3.85,6h0c-1.35,4.33-4.35,7.62-7,11.13h0a13.56,13.56,0,0,1-3.49,4.4c1.19,3.72,2.38,7.43,3.65,11.43-2.34-.44-1.75-2.36-2.59-3.33-.5-.57-.55-2-1.63-1.42-3.17,1.63-1.8-.51-1.5-1.72.39-1.64.85-3.27,1.28-4.91a16.82,16.82,0,0,1-8-5.26c-4.39-2.69-7.81-6.41-11-10.38a31.67,31.67,0,0,1-7-9.39h0a16,16,0,0,1-4.37-6.92h0A18.85,18.85,0,0,1,123,82.12H114a94.68,94.68,0,0,0-1.8,11.76c-.28,4-2.07,6-5.12,7.58-2.32,1.19-4,2.19-.53,4.12,1.89,1,2.07,2.68,1.53,4.8-1.54,6.08-2.93,12.21-4.11,18.37a13.44,13.44,0,0,1-6.43,9.6c-2.42,1.5-4.52,3.51-7.15,4.7-.8,1.59-1.68,1.79-2.66.15h0c-4.8-1.65-8.29-5.47-12.78-7.71-1.84-.91-2-3.41-2.45-5.31-1.38-6-2.56-12-3.81-18-1.07-5.15-1.06-5.15,3.12-8.47-.23-.34-.39-.89-.7-1-6.33-2.13-7.47-7.47-8.32-13.1-.38-2.52-.86-5-1.34-7.52h-20a20.46,20.46,0,0,0-2.31,2.25c-2.61,3-5.49,5.68-7.81,8.89s-5,5.82-7.18,9c-2.76,4.05-5.4,8.17-8,12.32A112.34,112.34,0,0,0,3.24,147.67a23.24,23.24,0,0,0-.08,4.79c.71,3.74,1.26,7.52,2.72,11.07.73,1.54,1.23,3.16,2,4.69,2.05,4.22,4.44,8.28,6.09,12.7a45.92,45.92,0,0,1,2.66,4.74c3.88,6.17,7.6,12.45,11.88,18.34l.07.11H42.12c3.44-2.32,7.07-4.36,10.69-6.43-1.92,2.86-4.69,4.71-7.46,6.43h84.44A5.55,5.55,0,0,0,131.82,199.37ZM47.37,184.89l-.11-.12c-.15-.17-.29-.33-.42-.5l-.07-.1a6.65,6.65,0,0,1-.36-.56l0-.05a6.23,6.23,0,0,1-.32-.63h0c.08,1,.13,1.61.13,1.61-11.93-5.32-14.27-28.05-14.45-32.88L19.62,150c4.72-2.37,8.52-3.24,12.13,0,0,.56,0,1.11,0,1.66-.17-4.83,7.78-16.28,7.78-16.28l-.72-.21c5.92-10,12.4-19.53,22-28.33-1.14,3,.08,3.74,2.7,4.15-11.1,2.6-14.38,11.78-19,19.06-2,3.19-1.08,8.75-.41,13.07,1,6.12.71,12.26,1.27,18.38.73,7.93,1.59,15.84,2.61,24A6.94,6.94,0,0,1,47.37,184.89Zm27.94-2.79a173.67,173.67,0,0,1-19.57,10.63,4.5,4.5,0,0,1-.82.22c-1.33.11-1.64-.95-2.06-1.83a1.53,1.53,0,0,1,.91-2.38c6.76-2.8,12.86-6.82,19.28-10.26,1.11-.6,2.39-1.39,3.27.34A2.31,2.31,0,0,1,75.31,182.1Zm14-33.6c.83.05,1.1.69,1.15,1.45,0,.93-.3,1.67-1.4,1.59-.84-.06-1.13-.69-1.14-1.44C87.85,149.16,88.18,148.43,89.26,148.5Zm-1.21,13.87a1.57,1.57,0,1,1,3.14-.21,1.27,1.27,0,0,1-1.29,1.58C88.81,163.74,88,163.48,88.05,162.37ZM89,174.73c.1-1,.94-1.28,1.58-1.45,1,.13,1.54.56,1.49,1.4a1.55,1.55,0,0,1-1.56,1.65A1.36,1.36,0,0,1,89,174.73Zm.74,12.77c-.08-1.11.43-2,1.66-1.95.77,0,1.19.62,1.33,1.43a1.59,1.59,0,0,1-1.52,1.63A1.18,1.18,0,0,1,89.71,187.5ZM92,200.74a1.22,1.22,0,0,1-1.45-1.19,1.66,1.66,0,0,1,1.26-1.83A1.41,1.41,0,0,1,93.3,199C93.55,200.06,92.94,200.62,92,200.74Z"/><path class="cls-36" d="M47.26,184.77c-.15-.17-.29-.33-.42-.5C47,184.44,47.11,184.6,47.26,184.77Z"/><path class="cls-36" d="M46.38,183.56c-.12-.21-.22-.42-.32-.63A6.23,6.23,0,0,0,46.38,183.56Z"/><path class="cls-36" d="M46.77,184.17a6.65,6.65,0,0,1-.36-.56A6.65,6.65,0,0,0,46.77,184.17Z"/><path class="cls-36" d="M48,185.47a6.94,6.94,0,0,1-.62-.58A6.94,6.94,0,0,0,48,185.47Z"/><path class="cls-23" d="M92.1,41.08a6,6,0,0,0,.56-.67,3.68,3.68,0,0,1-.48,0A3.51,3.51,0,0,1,92.1,41.08Z"/><path class="cls-11" d="M84.05,34.09l.13-.12a1,1,0,0,1,.08-.14Z"/><path class="cls-13" d="M84.18,34l.09-.15h0A1,1,0,0,0,84.18,34Z"/><path class="cls-17" d="M93.5,36.53l-1.32,3.89h0a3.68,3.68,0,0,0,.48,0,5.39,5.39,0,0,0,.93-3A4.82,4.82,0,0,0,93.5,36.53Z"/><path class="cls-4" d="M93.5,36.53a5.33,5.33,0,0,0-9-2.93c-.07.07-.13.15-.19.22l-.09.15-.13.12a.82.82,0,0,1-.26.14c-1.17.35-3.23-1.69-3.57.89h0c2.34.73,1.28,2.89,1.85,4.37L81,40.3l2.91.16a5.21,5.21,0,0,0,2,1.7l-.61,0a4.85,4.85,0,0,0,5.77.22l.36-.22-.77,0a5.37,5.37,0,0,0,1.49-1.08,3.51,3.51,0,0,0,.08-.66h0Zm-5.74.91c-.06-.7.19-1.49,1.12-1.28.37.09.61.76.8,1-.13,1-.3,1.78-1.21,1.57C88.14,38.66,87.81,37.91,87.76,37.44Z"/><path class="cls-2" d="M88.88,36.16c-.93-.21-1.18.58-1.12,1.28,0,.47.38,1.22.71,1.29.91.21,1.08-.58,1.21-1.57C89.49,36.92,89.25,36.25,88.88,36.16Z"/><path class="cls-37" d="M107.62,37h0c.11.39.23.78.34,1.17,0-.14,0-.28,0-.43a5.33,5.33,0,0,0-2.53-4.53l.39.46C107.19,34.36,107.36,35.69,107.62,37Z"/><path class="cls-23" d="M98.21,40.58h0l-.09,0c0,.06.06.12.1.17s0-.1,0-.15Z"/><path class="cls-4" d="M97.29,37.72c0,.05,0,.09,0,.14l.9,2.72h0c0,.05,0,.1,0,.15a7.22,7.22,0,0,0,.56.68l2-.11c3.79-1.16,4.43-4.4,5.06-7.65h0l-.39-.46a5.34,5.34,0,0,0-8.18,4.53Zm3.43,0c0,.29-.06.93-.75.95-.91,0-1-.76-1.1-1.4s.13-1.13.8-1.15C100.56,36.09,100.76,36.73,100.72,37.71Z"/><path class="cls-4" d="M107.62,37h0c-.26-1.29-.43-2.62-1.76-3.33h0c-.63,3.25-1.27,6.49-5.06,7.65C105.11,43.07,106.17,39.73,107.62,37Z"/><path class="cls-6" d="M107.62,37c-1.45,2.75-2.51,6.09-6.82,4.32l-2,.11A5.32,5.32,0,0,0,108,38.15c-.11-.39-.23-.78-.34-1.17Z"/><path class="cls-15" d="M97.31,37.86a5.31,5.31,0,0,0,.81,2.7l.09,0Z"/><path class="cls-38" d="M99.67,36.11c-.67,0-.87.61-.8,1.15s.19,1.43,1.1,1.4c.69,0,.71-.66.75-.95C100.76,36.73,100.56,36.09,99.67,36.11Z"/><circle class="cls-37" cx="102.65" cy="37.39" r="5.98"/><circle class="cls-37" cx="86.96" cy="37.39" r="5.98"/><path class="cls-39" d="M179.05,72.19c0-6.2.08-12.41,0-18.61,0-1.91.61-2.36,2.42-2.35q14.52.12,29,0c1.83,0,2.42.46,2.41,2.35q-.12,18.63,0,37.24c0,1.78-.6,2.23-2.29,2.22Q196,92.94,181.3,93c-1.71,0-2.31-.45-2.28-2.23C179.11,84.61,179.05,78.4,179.05,72.19Z"/><path class="cls-40" d="M196,57.23c3,0,6.11.11,9.15,0,2.35-.11,1.63,1.5,1.69,2.66s.38,2.43-1.72,2.39c-6.18-.14-12.36-.11-18.54,0-2.19,0-1.54-1.45-1.56-2.53s-.58-2.58,1.59-2.5C189.76,57.32,192.89,57.23,196,57.23Z"/><path class="cls-40" d="M194,68.16c2.39,0,4.78,0,7.16,0,.74,0,1.8-.37,1.76,1,0,1.2-.95.92-1.63.93q-7.29,0-14.58,0c-.67,0-1.58.28-1.63-.92,0-1.4,1-1,1.75-1C189.18,68.14,191.57,68.16,194,68.16Z"/><path class="cls-40" d="M194,84.06c2.39,0,4.78,0,7.17,0,.73,0,1.79-.37,1.76,1,0,1.2-.95.92-1.62.93q-7.29,0-14.59,0c-.67,0-1.58.29-1.63-.92,0-1.4,1-1,1.74-1C189.17,84,191.56,84.06,194,84.06Z"/><path class="cls-40" d="M192.72,76.11c1.89,0,3.78,0,5.68,0,.72,0,1.55-.14,1.5,1,0,1-.73.92-1.38.92h-12.1c-.65,0-1.35.08-1.38-.92,0-1.19.78-1,1.5-1C188.6,76.1,190.66,76.11,192.72,76.11Z"/><path class="cls-40" d="M190,74.12c-1.23,0-2.47,0-3.7,0-.73,0-1.29-.1-1.25-1.06,0-.8.51-.92,1.14-.92q3.81,0,7.64,0c.63,0,1.1.14,1.13.93,0,1-.55,1.06-1.27,1.05C192.44,74.11,191.21,74.12,190,74.12Z"/><path class="cls-40" d="M190.07,82.07h-3.95c-.65,0-1.08-.19-1.09-1s.37-1,1.05-1h7.64c.76,0,1.26.17,1.22,1.09s-.56.89-1.18.89Z"/><path class="cls-40" d="M205.87,70.12c-.93,0-1-.53-1-1.14,0-.83.63-.81,1.21-.78s.73.49.74,1C206.87,70,206.45,70.21,205.87,70.12Z"/><path class="cls-40" d="M205.87,74.1c-.93,0-1-.53-1-1.14,0-.83.63-.82,1.21-.79s.73.5.74,1C206.87,74,206.45,74.18,205.87,74.1Z"/><path class="cls-40" d="M205.7,76.15c.82-.07,1.16.21,1.16.95s-.33,1-1,1-.91-.22-.91-.85S205,76.05,205.7,76.15Z"/><path class="cls-40" d="M205.89,80.11c.75,0,1,.35,1,1s-.46.92-1.11.91-.82-.36-.84-.93S205.15,80.06,205.89,80.11Z"/><path class="cls-40" d="M206.85,85c.05.82-.36,1-1,1s-.92-.48-.9-1.12.37-.82.94-.83S206.93,84.32,206.85,85Z"/></svg>